<?xml version="1.0" encoding="UTF-8" standalone="no"?><!DOCTYPE svg PUBLIC "-//W3C//DTD SVG 1.1//EN" "http://www.w3.org/Graphics/SVG/1.1/DTD/svg11.dtd"><svg width="100%" height="100%" viewBox="0 0 240 240" version="1.1" xmlns="http://www.w3.org/2000/svg" xmlns:xlink="http://www.w3.org/1999/xlink" xml:space="preserve" xmlns:serif="http://www.serif.com/" style="fill-rule:evenodd;clip-rule:evenodd;stroke-linecap:round;stroke-linejoin:round;stroke-miterlimit:1.5;"><rect id="STROKE_VERSION" x="0" y="0" width="240" height="240" style="fill:none;"/><g id="SIMPLE"><path d="M77.582,53.582c10.861,-10.861 25.861,-17.582 42.418,-17.582c16.557,-0 31.557,6.721 42.418,17.582l-42.418,42.418l-42.418,-42.418Z" style="fill:#fff;"/><g><g><circle cx="108" cy="184.8" r="6" style="fill:#fff;"/></g><g><circle cx="132" cy="184.8" r="6" style="fill:#fff;"/></g><g><circle cx="156" cy="184.8" r="6" style="fill:#fff;"/></g><g><circle cx="84" cy="184.8" r="6" style="fill:#fff;"/></g></g><path d="M173.76,187.2l-5.76,28.8l-96,-0l-5.76,-28.8l6,-0c1.114,5.475 5.959,9.6 11.76,9.6c5.801,0 10.646,-4.125 11.76,-9.6l0.48,-0c1.114,5.475 5.959,9.6 11.76,9.6c5.801,0 10.646,-4.125 11.76,-9.6l0.48,-0c1.114,5.475 5.959,9.6 11.76,9.6c5.801,-0 10.646,-4.125 11.76,-9.6l0.48,-0c1.114,5.475 5.959,9.6 11.76,9.6c5.801,-0 10.646,-4.125 11.76,-9.6l6,-0Z" style="fill:none;stroke:#c79f5e;stroke-width:3.5px;"/><path d="M60.725,159.627l-4.352,0c-16.291,-16.291 -26.373,-38.791 -26.373,-63.627c-0,-24.836 10.082,-47.336 26.373,-63.627l21.209,21.209c-10.861,10.861 -17.582,25.861 -17.582,42.418c-0,16.557 6.721,31.557 17.582,42.418l84.836,0c10.861,-10.861 17.582,-25.861 17.582,-42.418c0,-16.557 -6.721,-31.557 -17.582,-42.418l21.209,-21.209c16.291,16.291 26.373,38.791 26.373,63.627c0,24.836 -10.082,47.336 -26.373,63.627l-4.352,0l-4.555,22.773l-6.96,0c-1.114,-5.475 -5.959,-9.6 -11.76,-9.6c-5.801,-0 -10.646,4.125 -11.76,9.6l-0.48,0c-1.114,-5.475 -5.959,-9.6 -11.76,-9.6c-5.801,0 -10.646,4.125 -11.76,9.6l-0.48,0c-1.114,-5.475 -5.959,-9.6 -11.76,-9.6c-5.801,0 -10.646,4.125 -11.76,9.6l-0.48,0c-1.114,-5.475 -5.959,-9.6 -11.76,-9.6c-5.801,0 -10.646,4.125 -11.76,9.6l-6.96,0l-4.555,-22.773Z" style="fill:none;stroke:#c79f5e;stroke-width:3.5px;"/></g></svg>